<svg xmlns="http://www.w3.org/2000/svg" width="106.693" height="33.298" viewBox="0 0 106.693 33.298">
  <path id="airbnb" d="M386.006,448.365a2.167,2.167,0,1,1-2.167-2.166A2.162,2.162,0,0,1,386.006,448.365Zm-8.933,4.367v.533a4.162,4.162,0,0,0-3.233-1.334,6.6,6.6,0,0,0,0,13.2,4.047,4.047,0,0,0,3.233-1.367v.566a.456.456,0,0,0,.467.466h2.7V452.263h-2.7a.479.479,0,0,0-.467.468Zm0,8.032a3.311,3.311,0,0,1-2.7,1.367,3.6,3.6,0,1,1,0-7.2,3.4,3.4,0,0,1,2.7,1.367Zm5.166-8.5h3.2V464.8h-3.2Zm47.8-.334a4.164,4.164,0,0,0-3.234,1.334v-7.033h-3.2V464.8h2.7a.476.476,0,0,0,.466-.467v-.566A4.128,4.128,0,0,0,430,465.13a6.6,6.6,0,0,0,.034-13.2ZM429.5,462.1a3.263,3.263,0,0,1-2.7-1.367v-4.466a3.618,3.618,0,0,1,2.7-1.367,3.6,3.6,0,1,1,0,7.2Zm-7.566-4.733v7.466h-3.2v-7.1c0-2.066-.667-2.9-2.465-2.9a3.583,3.583,0,0,0-2.6,1.234V464.8h-3.2V452.264H413a.477.477,0,0,1,.467.467v.533a4.591,4.591,0,0,1,3.4-1.334,5.19,5.19,0,0,1,3.5,1.2C421.5,454.064,421.937,455.264,421.937,457.364ZM402.7,451.93a4.164,4.164,0,0,0-3.233,1.334v-7.033h-3.2V464.8h2.7a.477.477,0,0,0,.467-.467v-.566a4.128,4.128,0,0,0,3.233,1.366,6.6,6.6,0,0,0,.033-13.2Zm-.533,10.166a3.263,3.263,0,0,1-2.7-1.367v-4.466a3.617,3.617,0,0,1,2.7-1.367,3.6,3.6,0,1,1,0,7.2Zm-8.666-10.166a5.09,5.09,0,0,1,1.466.167v2.966s-2.666-.9-4.333,1v8.766h-3.2V452.264h2.7a.476.476,0,0,1,.466.467v.533A4.38,4.38,0,0,1,393.505,451.93Zm-33.23,11.733c-.166-.4-.333-.833-.5-1.2-.267-.6-.534-1.167-.767-1.7l-.033-.033c-2.3-5-4.766-10.066-7.366-15.065l-.1-.2q-.41-.778-.8-1.567a9.6,9.6,0,0,0-1.2-1.833A5.384,5.384,0,0,0,345.277,440a5.594,5.594,0,0,0-4.266,2,11.437,11.437,0,0,0-1.2,1.833q-.39.788-.8,1.567l-.1.2c-2.567,5-5.066,10.065-7.366,15.065l-.034.066c-.233.534-.5,1.1-.767,1.7q-.25.551-.5,1.2a7.479,7.479,0,0,0-.4,3.6,7.084,7.084,0,0,0,4.333,5.533,6.842,6.842,0,0,0,2.7.534,7.512,7.512,0,0,0,.867-.067,8.8,8.8,0,0,0,3.333-1.133,16.885,16.885,0,0,0,4.133-3.466,17.515,17.515,0,0,0,4.133,3.466,8.806,8.806,0,0,0,3.333,1.133,7.417,7.417,0,0,0,.867.067,6.724,6.724,0,0,0,2.7-.534,7.071,7.071,0,0,0,4.333-5.533A6.314,6.314,0,0,0,360.275,463.663ZM345.243,465.4a16.436,16.436,0,0,1-3.366-6.2,5.377,5.377,0,0,1-.1-2.033,3.226,3.226,0,0,1,.534-1.4,3.54,3.54,0,0,1,2.933-1.466,3.414,3.414,0,0,1,2.934,1.466,3.244,3.244,0,0,1,.534,1.4,5.364,5.364,0,0,1-.1,2.033A16.97,16.97,0,0,1,345.243,465.4Zm13.3,1.567a4.953,4.953,0,0,1-3.033,3.9,5.048,5.048,0,0,1-2.533.333,6.564,6.564,0,0,1-2.533-.867,15.575,15.575,0,0,1-3.8-3.233,18.8,18.8,0,0,0,4.033-7.366,8.337,8.337,0,0,0,.167-2.834,5.4,5.4,0,0,0-.9-2.267,5.617,5.617,0,0,0-4.7-2.366,5.7,5.7,0,0,0-4.7,2.366,5.411,5.411,0,0,0-.9,2.267,6.926,6.926,0,0,0,.166,2.834,19.343,19.343,0,0,0,4.033,7.4,14.972,14.972,0,0,1-3.8,3.234,6.541,6.541,0,0,1-2.533.866,5.332,5.332,0,0,1-2.533-.333,4.953,4.953,0,0,1-3.033-3.9,5.515,5.515,0,0,1,.3-2.6c.1-.334.267-.667.433-1.067.234-.534.5-1.1.767-1.667l.034-.066c2.3-4.967,4.766-10.033,7.332-14.965l.1-.2c.267-.5.534-1.033.8-1.533a7.323,7.323,0,0,1,.933-1.467,3.5,3.5,0,0,1,5.333,0,7.372,7.372,0,0,1,.933,1.467c.267.5.534,1.034.8,1.533l.1.2q3.791,7.43,7.3,15v.033c.267.534.5,1.133.767,1.667.166.4.333.732.433,1.066A5.633,5.633,0,0,1,358.542,466.963Z" transform="translate(-329.776 -439.998)" fill="#ff5a5f"/>
</svg>
