<svg xmlns="http://www.w3.org/2000/svg" width="103.581" height="121.871" viewBox="0 0 103.581 121.871">
  <path id="apple-_173_" data-name="apple-[#173]" d="M116.5,7298.438c4.442-5.117,7.437-12.309,6.617-19.437-6.4.242-14.146,4.082-18.736,9.262-4.122,4.508-7.72,11.82-6.753,18.824,7.141.555,14.429-3.469,18.872-8.648m16.013,45.332c.178,18.4,16.882,24.555,17.066,24.613a65.237,65.237,0,0,1-8.8,17.367c-5.3,7.375-10.807,14.8-19.476,14.93-8.515.184-11.256-4.816-21-4.816s-12.779,4.691-20.837,5c-8.367.3-14.744-8.047-20.086-15.418-10.93-15.172-19.278-42.773-8.065-61.418a31.462,31.462,0,0,1,26.327-15.3c8.213-.121,15.97,5.3,20.991,5.3s14.448-6.516,24.356-5.547c4.146.121,15.791,1.586,23.265,12.066-.6.367-13.894,7.738-13.746,23.215" transform="translate(-46 -7279)" fill-rule="evenodd"/>
</svg>
