<svg id="ASUS_logo" xmlns="http://www.w3.org/2000/svg" width="112.026" height="23.102" viewBox="0 0 112.026 23.102">
  <g id="asus_logo-2" data-name="asus_logo">
    <path id="Tracé_10166" data-name="Tracé 10166" d="M810.552,77.8l-20.227-1.2c0,3.105,2.035,5.172,5.5,5.455l14.394,1.112c1.112.094,1.8.367,1.8,1.29s-.787,1.206-2.413,1.206H790v6h20.038c6.316,0,9.107-2.2,9.107-7.249,0-4.543-2.5-6.242-8.592-6.62" transform="translate(-707.119 -68.564)" fill="#404040"/>
    <path id="Tracé_10167" data-name="Tracé 10167" d="M257.542,70.4c0,2.119-1.07,2.77-4.753,2.77H247.7c-3.032,0-4.333-.881-4.333-2.77V62.962l-6.463-.462v8.445h-.136c-.367-2.444-1.3-5.309-7.428-5.728L209.1,63.885c0,3.084,2.224,4.941,5.686,5.309l14.079,1.437c1.1.084,1.951.42,1.951,1.343,0,1.018-.839,1.1-2.14,1.1H208.873V63.843l-6.473-.409v15.59h26.323c5.865,0,7.753-3.042,8.036-5.581h.136c.734,4.008,4.238,5.581,10.2,5.581h6.567c6.956,0,10.25-2.119,10.25-7.113V63.979l-6.368-.367V70.4Z" transform="translate(-181.166 -55.943)" fill="#404040"/>
    <path id="Tracé_10168" data-name="Tracé 10168" d="M0,78.676H7.847l9.841-15.894L10.67,62.1Z" transform="translate(0 -55.585)" fill="#404040"/>
    <path id="Tracé_10169" data-name="Tracé 10169" d="M741.3,0c-4.574,0-6.61,2.864-6.924,5.592V0H728V5.917h35V0Z" transform="translate(-651.624)" fill="#404040"/>
    <rect id="Rectangle_1961" data-name="Rectangle 1961" width="6.463" height="5.917" transform="translate(55.74)" fill="#404040"/>
    <path id="Tracé_10170" data-name="Tracé 10170" d="M147.138,0H127.415c-4.574,0-6.6,2.864-7.061,5.592V0H109.4a3.157,3.157,0,0,0-3,1.532l-3,4.385h43.728L147.138,0Z" transform="translate(-92.552)" fill="#404040"/>
  </g>
</svg>
