<svg xmlns="http://www.w3.org/2000/svg" width="18.331" height="15.658" viewBox="0 0 18.331 15.658">
  <path id="chanel-svgrepo-com" d="M5.472,3.15A7.829,7.829,0,0,0,1.464,5.293L3.316,7.146a5.209,5.209,0,0,1,4.96-1.367,7.829,7.829,0,0,0,0,10.1,5.21,5.21,0,0,1-4.96-1.367L1.464,16.365A7.829,7.829,0,0,0,10,18.062q.324-.134.634-.3.309.162.633.3a7.829,7.829,0,0,0,8.532-1.7l-1.853-1.853a5.21,5.21,0,0,1-4.96,1.367,7.829,7.829,0,0,0,0-10.1,5.209,5.209,0,0,1,4.96,1.367l1.853-1.853a7.829,7.829,0,0,0-8.532-1.7q-.324.134-.633.3Q10.32,3.73,10,3.6A7.829,7.829,0,0,0,5.472,3.15Zm5.157,3.942a5.208,5.208,0,0,0,0,7.472,5.209,5.209,0,0,0,0-7.472Z" transform="translate(-1.464 -3)" fill-rule="evenodd"/>
</svg>
