<svg id="fi-br-menu-burger" xmlns="http://www.w3.org/2000/svg" width="180.879" height="128.123" viewBox="0 0 180.879 128.123">
  <path id="Tracé_10601" data-name="Tracé 10601" d="M169.574,224H11.3a11.3,11.3,0,1,0,0,22.61H169.574a11.3,11.3,0,1,0,0-22.61Z" transform="translate(0 -171.244)" fill="#ffde77"/>
  <path id="Tracé_10602" data-name="Tracé 10602" d="M11.3,97.277H169.574a11.3,11.3,0,0,0,0-22.61H11.3a11.3,11.3,0,0,0,0,22.61Z" transform="translate(0 -74.667)"/>
  <path id="Tracé_10603" data-name="Tracé 10603" d="M169.574,373.333H11.3a11.305,11.305,0,0,0,0,22.61H169.574a11.305,11.305,0,0,0,0-22.61Z" transform="translate(0 -267.82)"/>
</svg>
