<svg id="fi-rr-shopping-cart" xmlns="http://www.w3.org/2000/svg" width="62.83" height="64.411" viewBox="0 0 62.83 64.411">
  <path id="Tracé_10570" data-name="Tracé 10570" d="M60.957,10.942a8.033,8.033,0,0,0-6.181-2.89H11.385l-.113-.942A8.051,8.051,0,0,0,3.28,0h-.6a2.684,2.684,0,0,0,0,5.368h.6A2.684,2.684,0,0,1,5.945,7.737l3.693,31.4A13.419,13.419,0,0,0,22.965,50.992H50.992a2.684,2.684,0,0,0,0-5.368H22.965A8.051,8.051,0,0,1,15.4,40.257H47.387A13.419,13.419,0,0,0,60.594,29.218L62.7,17.533a8.035,8.035,0,0,0-1.744-6.591ZM57.433,16.58,55.323,28.266a8.051,8.051,0,0,1-7.936,6.624H14.543l-2.525-21.47H54.776a2.684,2.684,0,0,1,2.657,3.161Z"/>
  <circle id="Ellipse_500" data-name="Ellipse 500" cx="4.5" cy="4.5" r="4.5" transform="translate(13.264 55.411)"/>
  <circle id="Ellipse_501" data-name="Ellipse 501" cx="4.5" cy="4.5" r="4.5" transform="translate(41.264 55.411)"/>
</svg>
