<svg xmlns="http://www.w3.org/2000/svg" width="62.408" height="62.408" viewBox="0 0 62.408 62.408">
  <path id="fi-rr-usd-circle" d="M31.2,0a31.2,31.2,0,1,0,31.2,31.2A31.239,31.239,0,0,0,31.2,0Zm0,57.208a26,26,0,1,1,26-26A26.033,26.033,0,0,1,31.2,57.208Zm10.4-20.8a7.811,7.811,0,0,1-7.8,7.8v2.6a2.6,2.6,0,1,1-5.2,0v-2.6h-.7a7.828,7.828,0,0,1-6.756-3.9,2.6,2.6,0,0,1,4.5-2.606,2.609,2.609,0,0,0,2.254,1.3h5.9a2.6,2.6,0,0,0,2.6-2.6,2,2,0,0,0-1.675-1.976L26.82,33.11A7.179,7.179,0,0,1,20.8,26a7.811,7.811,0,0,1,7.8-7.8V15.6a2.6,2.6,0,1,1,5.2,0v2.6h.7a7.831,7.831,0,0,1,6.756,3.9,2.6,2.6,0,1,1-4.5,2.6,2.612,2.612,0,0,0-2.254-1.3H28.6a2.6,2.6,0,0,0-2.6,2.6,2,2,0,0,0,1.675,1.976L35.586,29.3a7.179,7.179,0,0,1,6.02,7.107Z" fill="#0d0d0d"/>
</svg>
