<svg xmlns="http://www.w3.org/2000/svg" width="64.017" height="64.017" viewBox="0 0 64.017 64.017">
  <path id="fi-rr-circle-user" d="M32.008,0A32.008,32.008,0,1,0,64.017,32.008,32.044,32.044,0,0,0,32.008,0ZM21.339,56.452v-.437a10.669,10.669,0,1,1,21.339,0v.437a26.64,26.64,0,0,1-21.339,0Zm26.474-2.969a16.006,16.006,0,0,0-31.608,0,26.674,26.674,0,1,1,31.608,0Zm-15.8-40.147A10.669,10.669,0,1,0,42.678,24.006,10.68,10.68,0,0,0,32.008,13.337Zm0,16a5.335,5.335,0,1,1,5.335-5.335A5.34,5.34,0,0,1,32.008,29.341Z" fill="#0d0d0d"/>
</svg>
