<svg id="Groupe_9241" data-name="Groupe 9241" xmlns="http://www.w3.org/2000/svg" width="283.79" height="161.36" viewBox="0 0 283.79 161.36">
  <g id="Groupe_3" data-name="Groupe 3">
    <path id="Tracé_14" data-name="Tracé 14" d="M1800.671,904.909a45.988,45.988,0,0,0-18.74-3.681,44.888,44.888,0,0,0-21.4,5.037,37.65,37.65,0,0,0-14.89,14.025,40.986,40.986,0,0,0,0,40.725,37.62,37.62,0,0,0,14.89,14.031,44.888,44.888,0,0,0,21.4,5.037,52.729,52.729,0,0,0,7.592-.532l-6.4-17.236h-.107a22.052,22.052,0,0,1-11-2.708,18.779,18.779,0,0,1-7.474-7.637,25.489,25.489,0,0,1,0-22.635,18.84,18.84,0,0,1,7.474-7.637,22.1,22.1,0,0,1,11-2.708q10.5,0,17.874,8.881l13.646-12.346A36.049,36.049,0,0,0,1800.671,904.909Z" transform="translate(-1740.229 -891.477)" fill="#0d0d0d"/>
    <path id="Tracé_15" data-name="Tracé 15" d="M1902.109,895.3v49.4l20.577,7.642V895.3Z" transform="translate(-1819.247 -888.582)" fill="#0d0d0d"/>
    <path id="Tracé_16" data-name="Tracé 16" d="M1985.559,885.157a13.492,13.492,0,0,0-9.1-2.979,13.04,13.04,0,0,0-9.1,3.142,10.506,10.506,0,0,0,0,15.6,13.036,13.036,0,0,0,9.1,3.143,12.9,12.9,0,0,0,9.1-3.2,10.5,10.5,0,0,0,3.464-8.067A9.632,9.632,0,0,0,1985.559,885.157Zm-19.39,25.4v40.331l19.9,7.4a4.541,4.541,0,0,1,.672.317V910.557Z" transform="translate(-1849.403 -882.178)" fill="#0d0d0d"/>
    <path id="Tracé_17" data-name="Tracé 17" d="M2060.948,980.021a12.24,12.24,0,0,1-9.153-3.736q-3.631-3.739-3.628-10.345,0-6.5,3.628-10.181a12.31,12.31,0,0,1,9.153-3.685q7.695,0,11.7,7.908l15.919-8.124A23.71,23.71,0,0,0,2078.28,940a33.325,33.325,0,0,0-17.225-4.278,38.5,38.5,0,0,0-17.434,3.845,29.5,29.5,0,0,0,0,52.912,37.993,37.993,0,0,0,17.434,3.9,33.278,33.278,0,0,0,17.225-4.279,23.683,23.683,0,0,0,10.289-11.86l-15.919-8.123Q2068.639,980.021,2060.948,980.021Z" transform="translate(-1880.39 -908.312)" fill="#0d0d0d"/>
    <path id="Tracé_18" data-name="Tracé 18" d="M2203.338,942.093l24.37-25.133h-24.37l-21.011,20.475V895.3H2161.75v80.374h20.577V961.263l6.064-6.174,16.466,20.582h24.916Z" transform="translate(-1945.983 -888.582)" fill="#0d0d0d"/>
  </g>
  <path id="Tracé_19" data-name="Tracé 19" d="M1941.37,1025.759,1845.646,990.2a5.311,5.311,0,0,0-6.788,6.789l35.562,95.724a5.3,5.3,0,0,0,9.992-.265l13.121-42.034a2.35,2.35,0,0,1,1.539-1.541l42.035-13.12a5.3,5.3,0,0,0,.264-9.992Zm-46.3,10.233h-10.091v9.852h-9.2v-9.852h-10.15v-8.717h10.15v-9.853h9.2v9.853h10.091Z" transform="translate(-1788.22 -934.754)" fill="#ffde77"/>
</svg>
