<svg id="Groupe_9072" data-name="Groupe 9072" xmlns="http://www.w3.org/2000/svg" width="46.479" height="46.491" viewBox="0 0 46.479 46.491">
  <g id="fi-rr-link" transform="translate(0 0)">
    <path id="Tracé_10203" data-name="Tracé 10203" d="M26.815,25.53,20.5,31.848A9.738,9.738,0,1,1,6.724,18.078l6.319-6.323A1.937,1.937,0,1,0,10.3,9.016L3.985,15.34A13.613,13.613,0,0,0,23.242,34.586l6.318-6.318a1.937,1.937,0,1,0-2.739-2.739Z" transform="translate(-0.001 7.915)" fill="#0d0d0d"/>
    <path id="Tracé_10204" data-name="Tracé 10204" d="M34.589,3.992A13.517,13.517,0,0,0,24.965,0h0a13.525,13.525,0,0,0-9.622,3.984L9.015,10.3a1.937,1.937,0,1,0,2.739,2.741l6.324-6.318a9.671,9.671,0,0,1,6.884-2.853h0A9.739,9.739,0,0,1,31.845,20.5l-6.318,6.318a1.938,1.938,0,1,0,2.741,2.741l6.318-6.314a13.63,13.63,0,0,0,0-19.251Z" transform="translate(7.912 0)" fill="#0d0d0d"/>
    <path id="Tracé_10205" data-name="Tracé 10205" d="M20.189,8.568,8.567,20.189a1.937,1.937,0,1,0,2.739,2.739L22.928,11.306a1.937,1.937,0,1,0-2.739-2.739Z" transform="translate(7.494 7.495)" fill="#0d0d0d"/>
  </g>
</svg>
