<svg xmlns="http://www.w3.org/2000/svg" width="364.874" height="160.68" viewBox="0 0 364.874 160.68">
  <g id="Groupe_9248" data-name="Groupe 9248" transform="translate(3 0.516)">
    <g id="Groupe_3" data-name="Groupe 3" transform="translate(-3 -0.515)">
      <path id="Tracé_14" data-name="Tracé 14" d="M72.846,4.436A55.429,55.429,0,0,0,50.261,0,54.1,54.1,0,0,0,24.472,6.07a45.383,45.383,0,0,0-17.946,16.9A46.586,46.586,0,0,0,0,47.516,46.553,46.553,0,0,0,6.526,72.057a45.343,45.343,0,0,0,17.946,16.91,54.1,54.1,0,0,0,25.789,6.071A63.522,63.522,0,0,0,59.41,94.4L51.692,73.624h-.129A26.582,26.582,0,0,1,38.31,70.36a22.631,22.631,0,0,1-9.007-9.2,28.269,28.269,0,0,1-3.194-13.641A28.3,28.3,0,0,1,29.3,33.875,22.7,22.7,0,0,1,38.31,24.67a26.638,26.638,0,0,1,13.253-3.264q12.657,0,21.543,10.7L89.553,17.231A43.454,43.454,0,0,0,72.846,4.436Z" transform="matrix(0.914, 0.407, -0.407, 0.914, 38.655, 0)" fill="#0d0d0d"/>
      <path id="Tracé_15" data-name="Tracé 15" d="M1902.109,895.3v59.541l24.8,9.21V895.3Z" transform="translate(-1779.401 -884.852)" fill="#0d0d0d"/>
      <path id="Tracé_16" data-name="Tracé 16" d="M1990.005,885.769q-4.184-3.59-10.97-3.591t-10.97,3.787a12.663,12.663,0,0,0,0,18.8q4.182,3.786,10.97,3.788t10.97-3.856a12.657,12.657,0,0,0,4.175-9.723A11.607,11.607,0,0,0,1990.005,885.769Zm-23.369,30.612v48.608l23.99,8.916a5.5,5.5,0,0,1,.81.382V916.381Z" transform="translate(-1803.065 -879.826)" fill="#0d0d0d"/>
      <path id="Tracé_17" data-name="Tracé 17" d="M2067.839,989.114a14.756,14.756,0,0,1-11.031-4.5q-4.375-4.507-4.372-12.469,0-7.839,4.372-12.271a14.837,14.837,0,0,1,11.031-4.441q9.274,0,14.1,9.531l19.187-9.791a28.576,28.576,0,0,0-12.4-14.3q-8.745-5.155-20.76-5.157a46.4,46.4,0,0,0-21.013,4.634,35.554,35.554,0,0,0,0,63.772,45.8,45.8,0,0,0,21.013,4.7q12.01,0,20.76-5.157a28.546,28.546,0,0,0,12.4-14.294l-19.187-9.791Q2077.108,989.113,2067.839,989.114Z" transform="translate(-1827.384 -900.335)" fill="#0d0d0d"/>
      <path id="Tracé_18" data-name="Tracé 18" d="M2211.872,951.7l29.372-30.291h-29.372l-25.322,24.677V895.3h-24.8v96.87h24.8V974.8l7.309-7.441,19.847,24.806h30.028Z" transform="translate(-1878.859 -884.852)" fill="#0d0d0d"/>
    </g>
    <path id="Tracé_19" data-name="Tracé 19" d="M1931.9,1022.455l-86.91-32.288a4.822,4.822,0,0,0-6.163,6.165l32.287,86.91a4.813,4.813,0,0,0,9.071-.241l11.913-38.163a2.133,2.133,0,0,1,1.4-1.4l38.164-11.912a4.813,4.813,0,0,0,.24-9.072Zm-42.041,9.291H1880.7v8.944h-8.349v-8.944h-9.216v-7.915h9.216v-8.945h8.349v8.945h9.161Z" transform="translate(-1777.966 -926.168)" fill="#ffde77"/>
  </g>
</svg>
