<svg xmlns="http://www.w3.org/2000/svg" width="105.446" height="22.873" viewBox="0 0 105.446 22.873">
  <path id="gucci-4" d="M21.05,15.278v4.931c-1.774,1.576-6.014,2.514-9.171,2.514S0,20.751,0,11.483,8.306.218,11.657.218s6.928.614,9,2V6.552a.37.37,0,1,1-.74,0,7.106,7.106,0,0,0-6.952-5.077c-5.323.109-8.92,4.292-8.92,9.81s3.5,10.254,8.775,10.1a7.9,7.9,0,0,0,4.365-1.31l.02-4.8a1.634,1.634,0,0,0-1.673-1.871.394.394,0,1,1,0-.788h7.195c.542,0,.542.837,0,.788A1.636,1.636,0,0,0,21.05,15.278ZM69.557,6.556c0,.542-.542.493-.542,0a7.185,7.185,0,0,0-6.952-5.222c-5.323.105-8.924,4.438-8.924,9.955s3.452,10.4,8.726,10.254,7.789-5.372,7.987-6.063.542-.59.542-.049v4.042a18.571,18.571,0,0,1-9.414,3.254c-3.153,0-11.879-1.972-11.879-11.24S57.383,0,60.733,0a16.966,16.966,0,0,1,8.827,2.215V6.556Zm35.3-6.014c.788,0,.788.74,0,.74a1.635,1.635,0,0,0-1.677,1.871V19.567a1.635,1.635,0,0,0,1.677,1.871c.788,0,.788.986,0,.986H97.608c-.788,0-.788-.986,0-.986a1.635,1.635,0,0,0,1.677-1.871V3.153a1.633,1.633,0,0,0-1.677-1.871c-.788,0-.788-.74,0-.74h7.247Zm-57.629,0c.788,0,.788.74,0,.74a1.634,1.634,0,0,0-1.673,1.871l-.1,10.772a9.017,9.017,0,0,1-9.345,8.949,8.886,8.886,0,0,1-9.191-8.949V3.153a1.635,1.635,0,0,0-1.677-1.871c-.788,0-.788-.74,0-.74h7.3c.788,0,.788.74,0,.74A1.635,1.635,0,0,0,30.86,3.153l-.008,12.029a6.61,6.61,0,0,0,6.613,6.588c3.638,0,6.588-3.69,6.588-7.324L43.875,3.153A1.633,1.633,0,0,0,42.2,1.281c-.784,0-.784-.74,0-.74h5.028ZM93.663,6.556c0,.542-.542.493-.542,0a7.18,7.18,0,0,0-6.952-5.222c-5.323.105-8.924,4.438-8.924,9.955s3.452,10.4,8.726,10.254,7.789-5.372,7.987-6.063.546-.59.546-.049v4.042a18.586,18.586,0,0,1-9.418,3.254c-3.153,0-11.879-1.972-11.879-11.24S81.489,0,84.843,0a16.951,16.951,0,0,1,8.823,2.215V6.556Z"/>
</svg>
