<svg xmlns="http://www.w3.org/2000/svg" width="147.857" height="82.997" viewBox="0 0 147.857 82.997">
  <path id="jbl-svgrepo-com" d="M0,5.264,12.457,33.542,24.914,5.264ZM12.457,52.091a7.769,7.769,0,1,0,0-15.537,7.775,7.775,0,1,0,0,15.543ZM5.717,72.8c0,5.9,5.311,15.457,20.423,15.457S46.562,80.942,46.562,72.8V5.276H33.077l.006,69.875a7.014,7.014,0,0,1-6.937,7.023A6.943,6.943,0,0,1,19.2,75.249l-.006-14.237H5.717ZM56.783,87.041V5.264H83.73C88.936,5.264,97.2,9.533,97.2,18.59V32.519c0,4.078-3.573,11.293-8.871,11.293,5.3,0,8.871,4.571,8.871,8.04V76.365c0,4.165-3.364,10.676-13.473,10.676ZM77.606,40.472c4.9,0,6.13-.826,6.13-13.64S82.5,13,77.606,13H70.244V40.454Zm6.13,23.478c0-12.82,0-16.572-5.323-16.572H70.244V80.326l8.169.018c5.317,0,5.317-3.579,5.317-16.387Zm23.281,23.09h40.839V61.006H134.371l.012,14.231a6.946,6.946,0,1,1-13.892,0V5.27h-13.48Z" transform="translate(0 -5.264)"/>
</svg>
