<svg id="logo-amazon" xmlns="http://www.w3.org/2000/svg" width="123.962" height="37.297" viewBox="0 0 123.962 37.297">
  <path id="Tracé_10175" data-name="Tracé 10175" d="M26.381,8.9V20.893a.733.733,0,0,1-.733.733H21.862a.733.733,0,0,1-.733-.733V1.387a.733.733,0,0,1,.733-.733h3.5a.733.733,0,0,1,.733.733V4.134S27.351.216,31.067.216a5.056,5.056,0,0,1,5.171,3.636A5.552,5.552,0,0,1,41.287.216s5.647-.336,5.647,5.507l.043,3.218V20.933a.733.733,0,0,1-.733.733H42.458a.733.733,0,0,1-.733-.733L41.691,7.851C41.8,4.888,39.4,5.1,39.4,5.1c-3.016.054-2.726,3.838-2.726,3.838V20.933a.733.733,0,0,1-.733.733H32.157a.733.733,0,0,1-.733-.733V8.147s.221-3.07-2.472-3.07C28.953,5.077,26.287,4.727,26.381,8.9Zm97.581-.036V20.857a.733.733,0,0,1-.733.733l-3.937.076a.733.733,0,0,1-.733-.733V8.147s.221-3.07-2.472-3.07c0,0-2.572-.127-2.572,4.687V20.893a.733.733,0,0,1-.733.733H109a.733.733,0,0,1-.733-.733V1.387A.733.733,0,0,1,109,.654h3.5a.733.733,0,0,1,.733.733V4.134S114.485.216,118.2.216a4.9,4.9,0,0,1,5.322,3.56S123.962,4.634,123.962,8.865ZM96.629.135c-4.841,0-8.766,4.08-8.766,10.947,0,6.046,3.03,10.947,8.766,10.947,5.413,0,8.766-4.9,8.766-10.947,0-6.746-3.924-10.947-8.766-10.947Zm3.056,11.19a19.147,19.147,0,0,1-.323,3.959c-.46,2.733-2.444,2.737-2.736,2.722-.316.013-2.316-.016-2.73-2.722a19.146,19.146,0,0,1-.323-3.959v-.431a19.146,19.146,0,0,1,.323-3.959c.414-2.707,2.415-2.735,2.73-2.723C96.917,4.2,98.9,4.2,99.361,6.935a19.147,19.147,0,0,1,.323,3.959ZM85.666,4.107v-2.8a.733.733,0,0,0-.733-.733H72.42a.733.733,0,0,0-.733.733V4.086a.733.733,0,0,0,.733.733h6.527L71.221,16.026a1.889,1.889,0,0,0-.294.956v3.409s-.05,1.169,1.275.491a13.053,13.053,0,0,1,6.3-1.423A14.232,14.232,0,0,1,85,21s1.079.491,1.079-.588V17.449s.1-.785-.932-1.276A13.748,13.748,0,0,0,78.235,14.8ZM18.208,18.138l-1.185-1.8a3.045,3.045,0,0,1-.35-1.428V6.585C16.834-.606,8.863.014,8.863.014,1.776.014.729,5.529.729,5.529c-.3,1.109.564,1.136.564,1.136l3.463.351a.7.7,0,0,0,.805-.568A3.027,3.027,0,0,1,8.567,4.042a2.44,2.44,0,0,1,2.746,2.381V8.417C5.774,8.6,3.207,10.14,3.207,10.14A6.59,6.59,0,0,0,0,15.93c0,6.275,5.979,6.005,5.979,6.005a8.346,8.346,0,0,0,6.086-2.8,11.379,11.379,0,0,0,1.912,2.316.886.886,0,0,0,1.266.108l2.8-2.4A.691.691,0,0,0,18.208,18.138ZM7.847,18.06c-1.8,0-2.467-1.787-2.169-3.544s1.851-3.137,5.635-3.1v1.068c.134,4.666-1.969,5.573-3.466,5.573Zm60.666.078-1.185-1.8a3.048,3.048,0,0,1-.35-1.428V6.585c.162-7.19-7.81-6.571-7.81-6.571-7.086,0-8.133,5.515-8.133,5.515-.3,1.109.564,1.136.564,1.136l3.463.351a.7.7,0,0,0,.805-.568,3.027,3.027,0,0,1,3.006-2.406,2.44,2.44,0,0,1,2.746,2.381V8.417c-5.539.185-8.106,1.723-8.106,1.723a6.59,6.59,0,0,0-3.2,5.79c0,6.275,5.979,6.005,5.979,6.005a8.346,8.346,0,0,0,6.086-2.8,11.394,11.394,0,0,0,1.912,2.316.887.887,0,0,0,1.266.108l2.8-2.4a.691.691,0,0,0,.162-1.024Zm-10.36-.078c-1.8,0-2.467-1.787-2.169-3.544s1.851-3.137,5.635-3.1v1.068C61.753,17.153,59.651,18.06,58.153,18.06Z" transform="translate(0 -0.001)"/>
  <g id="Groupe_8306" data-name="Groupe 8306" transform="translate(17.479 22.53)">
    <path id="Tracé_10176" data-name="Tracé 10176" d="M226.525,81.074s-.317.551.072.674a1,1,0,0,0,.988-.337,13.964,13.964,0,0,0,4.094-9.849s.029-.794-.289-1.011c0,0-1.252-1.108-5.755-.771,0,0-3.925.265-6.068,2.167a.587.587,0,0,0-.193.385s-.046.468,1.132.265a31.237,31.237,0,0,1,6.261-.265s1.2.144,1.541.554c0,0,.554.458.265,1.974A28.855,28.855,0,0,1,226.525,81.074Z" transform="translate(-165.958 -69.716)" fill="#f3971b"/>
    <path id="Tracé_10177" data-name="Tracé 10177" d="M113.862,77.782a.952.952,0,0,1-.36,1.414s-10.1,8.082-27.071,8.082A48.324,48.324,0,0,1,54.384,74.891s-.511-.449-.194-.866c0,0,.284-.384,1.018.034a65.929,65.929,0,0,0,31.735,8.548A65.494,65.494,0,0,0,112.312,77.6S113.335,77.067,113.862,77.782Z" transform="translate(-54.087 -72.523)" fill="#f3971b"/>
  </g>
</svg>
