<svg xmlns="http://www.w3.org/2000/svg" width="59.9" height="47.917" viewBox="0 0 59.9 47.917">
  <path id="mcdonald-s-15-logo-svgrepo-com" d="M41.46,5.291c4.725,0,8.556,19.921,8.556,44.494h6.846c0-26.464-6.9-47.917-15.4-47.917C36.62,1.868,32.3,8.315,29.48,18.4,26.657,8.315,22.338,1.868,17.5,1.868c-8.505,0-15.4,21.453-15.4,47.917H8.943c0-24.574,3.831-44.494,8.556-44.494s8.558,18.388,8.558,41.073H32.9c0-22.684,3.831-41.073,8.558-41.073M60.289,46.364a1.71,1.71,0,1,1-1.717,1.7,1.7,1.7,0,0,1,1.717-1.7m0,3.171a1.461,1.461,0,1,0-1.406-1.468A1.409,1.409,0,0,0,60.289,49.535Zm-.666-2.462h.771c.472,0,.695.188.695.571a.511.511,0,0,1-.521.544l.568.884H60.8l-.541-.86h-.327v.86h-.31v-2Zm.311.888h.323c.272,0,.523-.014.523-.33,0-.266-.228-.308-.437-.308h-.409Z" transform="translate(-2.096 -1.868)" fill="#ffc300"/>
</svg>
