<svg id="new-balance-2-logo-svgrepo-com" xmlns="http://www.w3.org/2000/svg" width="97.175" height="44.985" viewBox="0 0 97.175 44.985">
  <path id="Tracé_10526" data-name="Tracé 10526" d="M65.053,73.674l-11.173.4,10.608.59Zm-1.336,2.348-11.2.4,10.648.592ZM62.38,78.39,51.2,78.782l10.635.591Zm-1.309,2.355-11.2.4,10.622.59Zm13.69-18.921-14.26.507,14.3.795Zm-.09-2.33-12.81.449,12.851.737-.041-1.186Zm-.091-2.247-11.414.376,11.469.637ZM74.5,54.939l-10,.335,10.044.593Zm-.065-1.865h-8.7l8.714.462ZM59.722,83.1l-11.172.4H59.494Z" transform="translate(-24.805 -53.074)" fill-rule="evenodd"/>
  <path id="Tracé_10527" data-name="Tracé 10527" d="M75.613,53.219h-16.1l-.457.808,8.057.427c.095,0,.095.134-.041.134l-8.486.284L57.768,56.3l8,.473a.081.081,0,0,1-.013.161l-8.5.279-.791,1.372,7.989.444c.175.014.175.162,0,.162l-8.486.3-.806,1.435,7.963.457c.175.014.162.175,0,.175l-8.486.3-.82,1.417,7.976.443c.12.013.135.162-.026.162L37.317,64.7l23.2,1.289c.147,0,.134.188-.028.188L36,67.051,59.2,68.34c.108,0,.134.175-.028.175L34.645,69.4l23.2,1.289c.095.014.188.188-.013.2l-24.493.872,23.2,1.289c.067.013.134.188-.026.188l-12.327.439.041,1.113,10.984.61a.088.088,0,0,1-.028.175l-10.916.388.053,1.244,9.534.53c.093.014.134.2-.028.2l-9.453.332.041,1.366,8.124.451c.093.013.121.188-.041.188l-8.043.287.054,1.5,6.714.373c.095.013.095.175-.04.175l-6.647.241.027.646H66.241c5.747,0,10.9-4.19,11.87-7.52s.968-6.338-3.652-7.842c2.579-.591,7.063-3.5,7.95-7.52.8-3.653-.538-7.386-6.8-7.4ZM64.712,76.54h-6.66l3.759-6.66h4.942C71.856,69.88,69.384,76.54,64.712,76.54Zm8.62-14.288A4.674,4.674,0,0,1,69.465,65.1H64.523l3.168-5.586h2.525c3.222.108,3.329,1.934,3.115,2.739Zm26.677,30.9a4.779,4.779,0,0,0-4.727-4.743,4.861,4.861,0,0,0-4.81,4.894A4.806,4.806,0,0,0,95.3,98.129a4.649,4.649,0,0,0,4.373-3.167H97.226a2.188,2.188,0,0,1-1.995,1.122,2.544,2.544,0,0,1-2.413-1.827h7.072A6.289,6.289,0,0,0,100.009,93.151Zm-7.257-.646a2.609,2.609,0,0,1,2.564-2.062,2.525,2.525,0,0,1,2.514,2.062ZM68.239,88.856v.753a3.829,3.829,0,0,0-2.812-1.183,4.78,4.78,0,0,0,.048,9.542,3.523,3.523,0,0,0,2.949-1.247v1.19h2.045V88.856h-2.23Zm-2.5,7.192a2.81,2.81,0,1,1,2.81-2.81,2.81,2.81,0,0,1-2.81,2.81ZM7.292,88.408a3.122,3.122,0,0,0-2.4,1.106v-.888H2.834v9.284H5.063V93.536c0-1.189.1-3.084,1.743-3.084,1.542,0,1.709,1.776,1.709,2.916V97.91h2.229V92.933a5.481,5.481,0,0,0-.452-2.665A3.374,3.374,0,0,0,7.292,88.408Zm13.85,4.743a4.778,4.778,0,0,0-4.726-4.743,4.861,4.861,0,0,0-4.81,4.894,4.807,4.807,0,0,0,4.826,4.826,4.649,4.649,0,0,0,4.374-3.167H18.36a2.19,2.19,0,0,1-1.995,1.122,2.544,2.544,0,0,1-2.413-1.827h7.072A6.279,6.279,0,0,0,21.142,93.151Zm-7.256-.646a2.609,2.609,0,0,1,2.564-2.062,2.526,2.526,0,0,1,2.514,2.062Zm43.929,5.4h2.229V85.518H57.815ZM76.35,88.408a3.121,3.121,0,0,0-2.4,1.106v-.888H71.891v9.284h2.23V93.536c0-1.189.1-3.084,1.743-3.084,1.541,0,1.709,1.776,1.709,2.916V97.91H79.8V92.933a5.481,5.481,0,0,0-.452-2.665A3.374,3.374,0,0,0,76.35,88.408Zm9.016,2.045a2.2,2.2,0,0,1,2.162,1.274H90.04a4.793,4.793,0,0,0-4.592-3.318,4.853,4.853,0,0,0-4.894,4.827,4.91,4.91,0,0,0,4.894,4.893A4.975,4.975,0,0,0,89.1,96.5a4.069,4.069,0,0,0,.939-1.642H87.527A2.348,2.348,0,0,1,85.5,96.083a2.7,2.7,0,0,1-2.715-2.816A2.632,2.632,0,0,1,85.366,90.453Zm-55.7,3.838-1.578-5.664H26.289l-1.6,5.664-1.887-5.664H20.84l3.1,9.284h1.428l1.81-6.016,1.759,6.016h1.5l2.973-9.284H31.565ZM41.6,88.418A3.833,3.833,0,0,0,38.791,89.6V85.518H36.561V97.9h2.044V96.713a3.524,3.524,0,0,0,2.95,1.246,4.779,4.779,0,0,0,.047-9.542Zm-.314,7.63a2.81,2.81,0,1,1,2.81-2.81,2.81,2.81,0,0,1-2.81,2.81ZM54.1,88.856v.753a3.83,3.83,0,0,0-2.812-1.183,4.78,4.78,0,0,0,.047,9.542,3.524,3.524,0,0,0,2.95-1.247v1.19h2.044V88.856H54.1Zm-2.5,7.192a2.81,2.81,0,1,1,2.81-2.81,2.81,2.81,0,0,1-2.81,2.81Z" transform="translate(-2.834 -53.144)" fill-rule="evenodd"/>
</svg>
