<svg xmlns="http://www.w3.org/2000/svg" width="91.905" height="33.077" viewBox="0 0 91.905 33.077">
  <path id="nike-6" d="M216.883,269.944c-5.98,7.023-11.715,15.733-11.772,22.243a7.709,7.709,0,0,0,2.636,6.209,12.78,12.78,0,0,0,8.631,3.159c4.326.006,8.621-1.74,11.984-3.084,5.664-2.266,68.266-29.451,68.266-29.451.6-.3.49-.68-.265-.491-.3.077-68.153,18.463-68.153,18.463a14.944,14.944,0,0,1-3.949.565c-5.214.03-9.853-2.863-9.816-8.963A20.02,20.02,0,0,1,216.883,269.944Z" transform="translate(-205.111 -268.477)" fill="#585858"/>
</svg>
