<svg xmlns="http://www.w3.org/2000/svg" width="75.039" height="37.389" viewBox="0 0 75.039 37.389">
  <g id="puma-logo" transform="translate(0 0)">
    <path id="Tracé_10178" data-name="Tracé 10178" d="M75.876,35.62c-.245.038-.482.942-.956,1.413-.347.34-.78.319-1.01.739-.087.157-.059.425-.158.682-.194.515-.876.561-.876,1.121,0,.605.569.721,1.063,1.151.386.346.424.584.891.752.4.136.993-.308,1.527-.149.439.131.859.225.958.676.087.415-.006,1.06-.538.985a5.827,5.827,0,0,0-1.913-.181c-1.153.131-2.469.507-2.6,1.793A1.476,1.476,0,0,0,73.943,46c.594-.117.313-.817.636-1.157.424-.435,2.824,1.52,5.056,1.52a2.916,2.916,0,0,0,2.332-.964c.065-.055.144-.175.244-.182a.853.853,0,0,1,.314.14c1.8,1.444,3.156,4.342,9.761,4.376a4.448,4.448,0,0,1,2.851,1.237A7.819,7.819,0,0,1,96.8,53.912a15.715,15.715,0,0,0,3.642,5.156c.1.1,1.577,1.247,1.695,1.334a.711.711,0,0,1,.09.417c-.044,1.1-.2,4.28,2.171,4.424.581.029.428-.379.428-.66a3.308,3.308,0,0,1,.19-1.673c.4-.781-.849-1.141-.812-2.83.026-1.259-1.032-1.044-1.568-2a2.587,2.587,0,0,1-.564-1.531c.12-3.826-.814-6.34-1.28-6.957-.363-.466-.664-.651-.332-.867a6.1,6.1,0,0,0,2.431-2.527c1.054-2.477,2-4.74,3.308-5.736a9.806,9.806,0,0,1,1.352-.908,8.883,8.883,0,0,0,2.215-1.268,1.975,1.975,0,0,0,.466-2.376c-.668-.852-1.823-.176-2.333.126-3.643,2.162-4.18,5.976-5.442,8.167-1.007,1.75-2.643,3.035-4.107,3.14a7.305,7.305,0,0,1-3.458-.657,17.4,17.4,0,0,1-4.8-3.164c-.77-.594-6.743-6.458-11.583-6.7,0,0-.6-1.2-.752-1.223-.354-.045-.716.719-.976.807-.244.081-.655-.827-.9-.787m-21.307,35a.862.862,0,0,1-.843-.847v-15.1H48.752V71.317A1.479,1.479,0,0,0,50.224,72.8h8.7a1.474,1.474,0,0,0,1.469-1.481V54.676H55.419l0,15.1a.863.863,0,0,1-.845.847M71.228,54.676H63.7A1.62,1.62,0,0,0,62.081,56.3V72.8h4.98V57.665a.845.845,0,0,1,1.69-.013V72.8h4.96V57.652a.83.83,0,0,1,.843-.818.84.84,0,0,1,.844.831V72.8h4.98V56.3a1.621,1.621,0,0,0-1.618-1.625ZM42.094,57.7a.852.852,0,0,0-.843-.863h-.845V66h.845a.841.841,0,0,0,.843-.851Zm3.339,10.547H40.406V72.8H35.433V54.676H45.464a1.605,1.605,0,0,1,1.6,1.632v10.3a1.629,1.629,0,0,1-1.631,1.632m52.012.5a1.868,1.868,0,1,0,.032,0Zm2.24,1.9a2.217,2.217,0,1,1-2.245-2.229,2.22,2.22,0,0,1,2.245,2.229" transform="translate(-35.433 -35.493)" fill="#404040"/>
    <path id="Tracé_10179" data-name="Tracé 10179" d="M601.122,277.778c.346,0,.528-.123.528-.368,0-.218-.176-.331-.512-.331h-.1v.7Zm1.274,1.433H601.8l-.764-1.016v1.016h-.485v-2.569h.51c.693,0,1.061.262,1.061.762a.746.746,0,0,1-.521.719l-.036.013Zm-9.792-5.937v-8.345a.845.845,0,0,0-1.69.013v8.332Zm0,6.794v-4.55h-1.69v4.55h-4.971v-16.5a1.62,1.62,0,0,1,1.617-1.625h8.4a1.621,1.621,0,0,1,1.619,1.625v16.5Z" transform="translate(-539.483 -242.762)" fill="#404040"/>
  </g>
</svg>
