<svg xmlns="http://www.w3.org/2000/svg" width="87.78" height="15.308" viewBox="0 0 87.78 15.308">
  <g id="sony-2" transform="translate(0 0)">
    <path id="Tracé_10181" data-name="Tracé 10181" d="M185.521,106.442a1.339,1.339,0,1,0,1.334,1.335A1.338,1.338,0,0,0,185.521,106.442Zm0,2.515a1.174,1.174,0,1,1,.832-.346,1.175,1.175,0,0,1-.832.346Z" transform="translate(-99.076 -94.08)" fill-rule="evenodd"/>
    <path id="Tracé_10182" data-name="Tracé 10182" d="M89.925,93.441a.367.367,0,0,0-.167-.322.691.691,0,0,0-.365-.073h-.652v1.5h.183v-.69h.336l.427.69H89.9l-.452-.69c.267-.008.472-.116.472-.41Zm-.721.266h-.281v-.529h.427c.186,0,.389.028.389.259C89.74,93.742,89.413,93.707,89.2,93.707Zm-7.808-7.5,2.735-2.921a.929.929,0,0,0,.237-.493c0-.214-.184-.3-.764-.3h-.69V80.654h7.471V82.5H89.4c-1.134,0-1.344.171-2.926,2.165L82.15,89.336v2.852c0,.73.368.986,1.423.986h1.634v1.779H74.743V93.174h1.634c1.054,0,1.423-.257,1.423-.986V89.336L72.7,83.7c-.842-.986-.726-1.2-3.071-1.2V80.654h9.463V82.5h-.674c-.685,0-.976.129-.976.386,0,.215.211.386.343.557l2.579,2.81a.628.628,0,0,0,1.029-.039Zm-63.49-5.559h2.283V85.8H18.08a3.319,3.319,0,0,0-1.417-1.968,8.815,8.815,0,0,0-5.281-1.783c-2.49,0-4.591.772-4.591,1.908,0,3.152,14.238.644,14.238,6.6,0,3.108-3.05,4.845-8.527,4.845a16.057,16.057,0,0,1-6.458-1.487c-.531-.306-.756.29-.855,1.037H2.848V89.636H4.965a4.223,4.223,0,0,0,1.7,2.165c1.027.944,3.47,1.63,5.711,1.608,3.379-.033,4.54-.772,4.54-1.844s-1.149-1.329-4.851-1.908l-3.144-.515c-3.548-.536-6.131-1.329-6.131-4.159,0-2.937,3.267-4.781,8.434-4.781a11.115,11.115,0,0,1,5.747,1.279c.484.315.938.352.932-.829Zm44.547,8.614.045-5.719c0-.75-.39-1.007-1.506-1.007h-1.31V80.763H68.02v1.779H66.933c-1.116,0-1.507.258-1.507,1.007V95.062l-3.263-.026L51.595,85.029V92.3c0,.729.39,1.007,1.506,1.007h1.451v1.758H45.892V93.3h1.435c1.115,0,1.506-.279,1.506-1.007V83.549c0-.75-.39-1.007-1.506-1.007H45.892V80.763h7.486ZM34.525,80.095c-6.645,0-10.8,2.938-10.8,7.654,0,4.631,4.1,7.547,10.6,7.547,6.9,0,10.92-2.872,10.92-7.782,0-4.416-4.333-7.418-10.717-7.418ZM34.374,93.43c-3.678,0-5.792-2.123-5.792-5.789,0-3.58,2.206-5.7,5.976-5.7,3.617,0,5.731,2.166,5.731,5.853C40.289,91.394,38.144,93.43,34.374,93.43Z" transform="translate(-2.793 -80.095)" fill-rule="evenodd"/>
  </g>
</svg>
