<svg xmlns="http://www.w3.org/2000/svg" width="63.095" height="63.095" viewBox="0 0 63.095 63.095">
  <path id="Tracé_10573" data-name="Tracé 10573" d="M33.548,2A31.548,31.548,0,1,0,65.1,33.548,31.548,31.548,0,0,0,33.548,2Zm0,58.588A27.041,27.041,0,1,1,60.588,33.548,27.041,27.041,0,0,1,33.548,60.588Zm13.34-43.4-19.131,9.6A2.434,2.434,0,0,0,26.742,27.8L17.188,46.888a2.261,2.261,0,0,0,3.02,3.02l19.131-9.6a2.434,2.434,0,0,0,1.014-1.014l9.554-19.131a2.226,2.226,0,0,0-3.02-2.974ZM36.657,36.657l-12.416,6.2,6.2-12.416,12.416-6.2Z" transform="translate(-2 -2)" fill="#0d0d0d"/>
</svg>
