<svg xmlns="http://www.w3.org/2000/svg" width="24.01" height="3.726" viewBox="0 0 24.01 3.726">
  <path id="Tracé_10559" data-name="Tracé 10559" d="M8.94,86.468H8.6c-.028,0-.1,0-.1-.042s.014-.042.056-.056a.462.462,0,0,0,.38-.506V83.348a.479.479,0,0,0-.38-.506c-.042,0-.056-.028-.056-.042,0-.056.07-.042.1-.042h2.783a1.139,1.139,0,1,1,0,2.277H9.98v.858a.469.469,0,0,0,.38.478c.042.014.056.028.056.056s-.07.042-.1.042H8.94ZM29.688,85.1h.661l-.661-1.125-.07-.113-.59,1.237h.661Zm0-2.362h.45l1.883,3.318a.6.6,0,0,0,.211.211.779.779,0,0,0,.225.1c.028.014.056.028.056.056s-.07.042-.1.042H30.742c-.028,0-.113,0-.113-.042s.028-.042.057-.056a.234.234,0,0,0,.168-.155c.028-.1,0-.155-.07-.281q-.143-.3-.3-.6H28.915l-.014.028c-.014.056-.127.253-.211.464-.112.225-.155.281-.127.394.014.084.084.127.169.155.028.014.042.028.042.056s-.07.042-.1.042H27.9c-.028,0-.1,0-.1-.042s.014-.042.056-.056a.777.777,0,0,0,.225-.1.6.6,0,0,0,.211-.211l.1-.211,1.068-2.235-.155-.267a1.215,1.215,0,0,0-.436-.45,1.235,1.235,0,0,0-.211-.07c-.042-.014-.056-.028-.042-.056s.028-.014.042-.028h1.026Zm-4.2,3.711h.056a1.85,1.85,0,1,0,0-3.7H23.419c-.042,0-.112-.014-.112.042a.063.063,0,0,0,.056.042.478.478,0,0,1,.394.478v2.572a.468.468,0,0,1-.394.478c-.028.014-.056.028-.056.056s.07.042.112.042h1.364v-.014h.7Zm0-3.43a.72.72,0,0,1,.717.717v1.715a.72.72,0,0,1-.717.717h-.7V83.024h.7ZM20.129,85.1h.661l-.661-1.125-.07-.113-.59,1.237Zm0-2.362h.464l1.884,3.318a.477.477,0,0,0,.2.211.713.713,0,0,0,.239.1c.028.014.056.028.056.056s-.084.042-.112.042H21.184c-.028,0-.1,0-.1-.042s.014-.042.056-.056a.215.215,0,0,0,.155-.155c.028-.1,0-.155-.056-.281-.1-.211-.211-.408-.309-.6H19.356l-.014.028c-.014.056-.113.253-.211.464s-.155.281-.126.394a.234.234,0,0,0,.169.155c.028.014.056.028.056.056s-.07.042-.112.042h-.759c-.028,0-.113,0-.113-.042s.028-.042.056-.056a.856.856,0,0,0,.239-.1.57.57,0,0,0,.2-.211l.1-.211,1.083-2.235-.155-.267a1.335,1.335,0,0,0-.436-.45,1.381,1.381,0,0,0-.225-.07c-.028-.014-.056-.028-.042-.056s.042-.014.056-.028h1.012ZM15.49,85.2a1.716,1.716,0,0,0,1.026.042L17.74,86.3l.1.084a.051.051,0,0,1,.014.042c0,.042-.07.042-.1.042H16.461l-.97-.8-.787-.633v.872a.479.479,0,0,0,.394.464c.028.014.042.028.042.056s-.07.042-.1.042h-1.7c-.042,0-.112,0-.112-.042s.028-.042.056-.056a.5.5,0,0,0,.394-.548V83.39a.5.5,0,0,0-.394-.548.063.063,0,0,1-.056-.042c0-.056.07-.042.112-.042h2.741a1.139,1.139,0,1,1,0,2.277H15.2c.042.084.141.113.225.155C15.448,85.189,15.462,85.2,15.49,85.2Zm0-.436H15.6c.365,0,.675-.394.675-.9a.805.805,0,0,0-.675-.886h-.9v1.785Zm-4.709-1.785h-.8v1.785h.928c.38,0,.675-.394.675-.9s-.3-.886-.675-.886Z" transform="translate(-8.504 -82.743)" fill-rule="evenodd"/>
</svg>
